<svg width="26" height="26" viewBox="0 0 26 26" fill="none" xmlns="http://www.w3.org/2000/svg">
<path d="M25.8305 4.958C25.8305 8.885 24.1185 11.738 24.0465 11.857C23.9015 12.094 23.6505 12.224 23.3915 12.224C23.2555 12.224 23.1185 12.188 22.9945 12.113C22.6325 11.893 22.5165 11.422 22.7355 11.06C22.7515 11.034 24.2965 8.437 24.2965 4.958C24.2965 2.974 23.0065 1.534 21.2285 1.534C19.5365 1.534 18.1605 2.91 18.1605 4.603C18.1605 5.324 18.5095 7.156 18.6435 7.801C18.7305 8.216 18.4635 8.622 18.0485 8.709C17.6335 8.794 17.2275 8.529 17.1415 8.115C17.0885 7.862 16.6245 5.613 16.6245 4.603C16.6245 2.065 18.6895 0 21.2285 0C23.8515 0 25.8305 2.131 25.8305 4.958ZM21.3585 6.165C21.6635 8.714 22.1055 13.681 21.5975 14.187L10.4515 25.334C9.7665 26.02 8.6535 26.02 7.9675 25.333L0.5145 17.881C-0.1715 17.196 -0.1715 16.083 0.5145 15.397L11.6615 4.251C11.8385 4.074 13.7665 4.066 15.9345 4.179C15.9225 4.322 15.8915 4.457 15.8915 4.603C15.8915 5.159 16.0145 6.021 16.1435 6.779C15.9165 7.116 15.7835 7.521 15.7835 7.958C15.7835 9.122 16.7275 10.066 17.8915 10.066C19.0555 10.066 19.9995 9.122 19.9995 7.958C19.9995 7.241 19.6405 6.609 19.0935 6.229C18.9815 5.562 18.8915 4.918 18.8915 4.603C18.8915 4.535 18.9055 4.472 18.9115 4.405C19.1785 4.433 19.4415 4.462 19.6905 4.493C21.1635 4.674 21.1785 4.671 21.3585 6.165ZM15.4175 14.507C15.2445 14.026 14.9565 13.449 14.3315 12.785L15.1775 11.938L14.2355 10.997L13.3225 11.911C12.1005 11.074 10.8405 11.142 9.9855 11.997C9.0535 12.929 9.2735 14.112 9.9575 15.487C10.4275 16.439 10.5135 16.987 10.1485 17.352C9.7735 17.727 9.1685 17.564 8.6195 17.016C7.9955 16.392 7.6295 15.621 7.4475 14.996L6.0335 15.834C6.1975 16.4 6.6395 17.207 7.2635 17.871L6.3415 18.794L7.2825 19.736L8.2735 18.746C9.5805 19.668 10.8985 19.544 11.7535 18.689C12.6285 17.812 12.7055 16.832 11.9555 15.275C11.4355 14.159 11.3105 13.611 11.6185 13.304C11.8885 13.034 12.3685 12.957 12.9935 13.582C13.6865 14.275 13.9165 14.948 14.0415 15.304L15.4175 14.507Z" fill="#F03F60"/>
</svg>
